<?xml version='1.0' encoding='iso-8859-1'?>
<!-- Uploaded to: SVG Repo, www.svgrepo.com, Generator: SVG Repo Mixer Tools -->
<svg fill="#000000" height="800px" width="800px" version="1.1" xmlns="http://www.w3.org/2000/svg" viewBox="0 0 463 463" xmlns:xlink="http://www.w3.org/1999/xlink" enable-background="new 0 0 463 463">
  <g>
    <path d="m367.5,0h-272c-21.78,0-39.5,17.72-39.5,39.5v368c0,10.336 6.71,19.128 16,22.266v9.734c0,12.958 10.542,23.5 23.5,23.5h272c12.958,0 23.5-10.542 23.5-23.5v-9.734c9.29-3.138 16-11.93 16-22.266v-368c0-21.78-17.72-39.5-39.5-39.5zm-272,15h272c13.51,0 24.5,10.991 24.5,24.5v56.5h-321v-56.5c0-13.509 10.99-24.5 24.5-24.5zm272,433h-272c-4.687,0-8.5-3.813-8.5-8.5v-8.5h289v8.5c0,4.687-3.813,8.5-8.5,8.5zm16-32h-304c-4.687,0-8.5-3.813-8.5-8.5v-296.5h321v296.5c0,4.687-3.813,8.5-8.5,8.5z"/>
    <path d="M231.5,136C161.196,136,104,193.196,104,263.5S161.196,391,231.5,391S359,333.804,359,263.5S301.804,136,231.5,136z    M231.5,376C169.468,376,119,325.533,119,263.5S169.468,151,231.5,151S344,201.467,344,263.5S293.532,376,231.5,376z"/>
    <path d="m279.5,79c12.958,0 23.5-10.542 23.5-23.5s-10.542-23.5-23.5-23.5-23.5,10.542-23.5,23.5 10.542,23.5 23.5,23.5zm0-32c4.687,0 8.5,3.813 8.5,8.5s-3.813,8.5-8.5,8.5-8.5-3.813-8.5-8.5 3.813-8.5 8.5-8.5z"/>
    <path d="m343.5,79c12.958,0 23.5-10.542 23.5-23.5s-10.542-23.5-23.5-23.5-23.5,10.542-23.5,23.5 10.542,23.5 23.5,23.5zm0-32c4.687,0 8.5,3.813 8.5,8.5s-3.813,8.5-8.5,8.5-8.5-3.813-8.5-8.5 3.813-8.5 8.5-8.5z"/>
    <path d="m111.5,79h104c8.547,0 15.5-6.953 15.5-15.5v-16c0-8.547-6.953-15.5-15.5-15.5h-104c-8.547,0-15.5,6.953-15.5,15.5v16c0,8.547 6.953,15.5 15.5,15.5zm-.5-31.5c0-0.276 0.225-0.5 0.5-0.5h104c0.275,0 0.5,0.224 0.5,0.5v16c0,0.276-0.225,0.5-0.5,0.5h-104c-0.275,0-0.5-0.224-0.5-0.5v-16z"/>
    <path d="m231.5,168c-52.659,0-95.5,42.841-95.5,95.5s42.841,95.5 95.5,95.5 95.5-42.841 95.5-95.5-42.841-95.5-95.5-95.5zm0,176c-44.388,0-80.5-36.112-80.5-80.5s36.112-80.5 80.5-80.5 80.5,36.112 80.5,80.5-36.112,80.5-80.5,80.5z"/>
    <path d="m231.5,200c-4.143,0-7.5,3.358-7.5,7.5s3.357,7.5 7.5,7.5c26.743,0 48.5,21.757 48.5,48.5 0,4.142 3.357,7.5 7.5,7.5s7.5-3.358 7.5-7.5c0-35.014-28.486-63.5-63.5-63.5z"/>
  </g>
</svg>